# xmcd
#
# Track frame offsets:
#	150
#	15662
#	28790
#	43007
#	57622
#	71632
#	85215
#	97585
#	114372
#	126425
#	138747
#	152197
#	168822
#	181585
#	197565
#	215310
#	232487
#	250365
#	262692
#	280805
#	300395
#	321220
#
# Disc length: 4594 seconds
#
# Revision: 3
# Processed by: cddbd v1.5.2PL0 Copyright (c) Steve Scherf et al.
# Submitted via: audiograbber 1.83.01
#
DISCID=3211f016
DTITLE=Various Artist - Indigo Blues Collection 3
DYEAR=1998
DGENRE=Blues
TTITLE0=Henry Thomas - Bull Doze Blues
TTITLE1=Robert Wilkins - That's No Way To Get Along
TTITLE2=Carl Martin - Old Time Blues
TTITLE3=Barbecue Bob - Motherless Child Blues
TTITLE4=Johnnie Temple - Lead Pencil Blues
TTITLE5=Sonny Boy Williamson - Good Morning School Girl
TTITLE6=Dr. Clayton - Ain't No Business We Can Do
TTITLE7=Bert Ammons - Boogie Woogie Blues
TTITLE8=Georgia White - The Blues Ain't Nothing But
TTITLE9=Louis Jordan - Caldonia
TTITLE10=Roy Milton - R.M. Blues
TTITLE11=Big Joe Duskin - Low Down Dog
TTITLE12=Ruth Brown - Gee Baby Ain't I Good To You
TTITLE13=Ruby Turner - Bring It On Home To Me
TTITLE14=Peter Golding - Stretching The Blues
TTITLE15=Otis Grand and The Dancekings - No Alibi
TTITLE16=Paul Lamb and The King Snakes - I Need Somebody To Love
TTITLE17=Top Topham - You're Gonna Ruin Me
TTITLE18=Chicken Shack - Midnight Hour
TTITLE19=Blodwyn Pig - Summers Day
TTITLE20=Mick Abrahams Band - Let's Get Down To Business
TTITLE21=Chicken Shack - Poor Boy
EXTD=
EXTT0=
EXTT1=
EXTT2=
EXTT3=
EXTT4=
EXTT5=
EXTT6=
EXTT7=
EXTT8=
EXTT9=
EXTT10=
EXTT11=
EXTT12=
EXTT13=
EXTT14=
EXTT15=
EXTT16=
EXTT17=
EXTT18=
EXTT19=
EXTT20=
EXTT21=
PLAYORDER=
